<svg version="1.1" xmlns="http://www.w3.org/2000/svg" xmlns:xlink="http://www.w3.org/1999/xlink" width="126.54432" height="130.59183" viewBox="0,0,126.54432,130.59183"><g transform="translate(-160.68587,-111.53095)"><g data-paper-data="{&quot;isPaintingLayer&quot;:true}" fill-rule="nonzero" stroke-linejoin="miter" stroke-miterlimit="10" stroke-dasharray="" stroke-dashoffset="0" style="mix-blend-mode: normal"><path d="M282.23019,194.28237c0,18.56929 -17.50642,33.62267 -39.10166,33.62267c-21.59525,0 -39.10166,-15.05338 -39.10166,-33.62267c0,-18.56929 17.50641,-33.62267 39.10166,-33.62267c21.59525,0 39.10166,15.05338 39.10166,33.62267z" fill="none" stroke="#000000" stroke-width="10" stroke-linecap="butt"/><g data-paper-data="{&quot;index&quot;:null}" stroke="none" stroke-width="1" stroke-linecap="butt"><path d="M264.2886,217.75077c-17.18328,16.90272 -43.99924,29.21804 -83.42211,22.50931c-15.74693,-2.65739 -29.50983,-11.53307 -12.03349,-21.59461c13.59388,-7.74476 30.86888,-11.93854 40.91962,-21.43191v1.44806l1.33936,5l0.36735,0.19591l0.02346,0.39426l1.228,0.98235l0.171,0.18619l0.02965,0.49813l1.06256,0.85l0.00893,0.15l1.03568,0.8285l0.88773,0.96658l0.16072,0.00833l0.91076,0.99167l0.53374,0.02767l0.1995,0.15959l1.05258,1.14607l0.42244,0.0219l0.20992,0.34284l0.66055,0.15412l0.13574,0.1478l0.53374,0.02767l0.66422,0.53134l2.23198,1.04154l0.05972,0.09752l0.29856,0.06966l0.26704,0.12461l1.06638,0.22117l0.15382,0.25123l1.33566,0.31164l1.18057,0.66108l0.61965,-0.15772l0.69992,0.16331l1.18057,0.66108l0.75221,-0.19146l0.48646,0.28891l1.07148,0.33333l1.71735,0.12329l1.67099,0.38988h1.97455l0.06983,0.03476l0.08034,0.01874l0.01827,0.02983l0.29856,0.06966l0.26703,0.12461l1.28579,0.26667l0.14287,0.06667l2.40336,0.49845l2.38847,0.55728h0.29856l0.30042,0.06231l0.00688,-0.00428l1.17995,0.27531h0.29856l0.30043,0.06231l0.10014,-0.06231h2.53054l0.10014,0.06231l0.30042,-0.06231h0.29856l1.42864,-0.33333h3.22967l0.10014,0.06231l0.30042,-0.06231h0.29856l2.38847,-0.55728l1.2253,-0.25412l0.48889,-0.0351l0.63932,-0.19889l0.04986,-0.01034l0.03323,-0.01551l0.34908,-0.1086l0.07599,-0.04513l2.96459,-0.6917l0.20992,-0.34284l0.42244,-0.0219l0.52537,-0.57205l1.09715,-0.25599c-0.76039,0.87292 -1.54908,1.71142 -2.36473,2.51193z" fill="#272525"/><path d="M248.50686,112.01637c4.18814,1.40431 2.03904,24.84623 1.43695,28.85877c29.13763,7.39627 34.50963,35.70422 26.24099,58.04466v-3.25238l0.06677,-0.09346l-0.06677,-0.28038v-0.27864l-0.59711,-2.22912l-0.07997,-0.33582v-0.52708l-0.35716,-1.33333l-0.28458,-0.49799l-0.02053,-0.07665l-0.03348,-0.01785l-0.21671,-0.37923l-0.25597,-1.07506l-0.29746,-0.55521v-0.30599l-0.41775,-1.55951l-0.1321,-1.60277l-0.35716,-1l-0.34249,-0.5023l-0.08986,-0.33543l-0.21821,-0.11637l-0.48432,-0.7103l-0.04546,-0.7635l-1.04532,-0.83621l-0.73915,-1.08403l-0.14882,-0.02778l-2.70848,-3.97222l-0.62387,-0.11645l-0.07128,-0.11088l-0.71433,-0.66667l-0.33738,-0.18892l-0.09593,-0.15668l-0.20597,-0.04806l-0.23316,-0.25386l-0.21547,-0.01117l-0.18807,-0.15045l-1.38226,-1.50505l-0.53374,-0.02767l-0.66421,-0.53134l-2.14298,-1l-0.75284,-0.15614l-0.65065,-0.38642l-1.07148,-0.33333l-0.4189,-0.03007l-0.3707,-0.18452l-1.42865,-0.33333h-0.79628l-0.19993,-0.11874l-2.14298,-0.66667l-1.71735,-0.12329l-1.67099,-0.38988h-1.42865l-0.18811,-0.04389l-0.35233,-0.10961l-0.16964,-0.01218l-0.71856,-0.16765h-1.07148l-1.42864,-0.33333h-8.94426l-0.10014,-0.06231l-0.30042,0.06231h-0.29856l-1.56026,0.36404c-1.07576,0.07841 -2.10692,0.3051 -3.07002,0.65818l-0.16155,0.03351l-0.26704,0.12461l-0.29855,0.06966l-0.05799,0.0947c-0.93277,0.42572 -1.78949,0.97418 -2.54601,1.62284c-1.19886,0.36445 -2.34363,0.8159 -3.30638,1.33107c0.49971,-4.98053 0.29437,-10.12809 0.0293,-15.68334c-0.44225,-7.31283 6.42321,-12.78412 11.58895,-13.76805c-16.41018,-17.02136 3.23305,-33.38031 14.47392,-29.84579z" fill="#272525"/><path d="M177.60791,234.34438c-3.30264,-0.35803 -13.00288,-3.84446 -5.73779,-10.02482c9.60496,-8.12545 26.39867,-11.09756 39.6085,-20.11802l0.00418,0.07023l1.228,0.98235l0.171,0.18619l0.02965,0.49813l1.06256,0.85l0.00893,0.15l1.03568,0.8285l0.88773,0.96658l0.16072,0.00833l0.91076,0.99167l0.53374,0.02767l0.1995,0.15959l1.05258,1.14607l0.42244,0.0219l0.20992,0.34284l0.66055,0.15412l0.13574,0.1478l0.53374,0.02767l0.66422,0.53134l2.23198,1.04154l0.05972,0.09752l0.29856,0.06966l0.26704,0.12461l1.06638,0.22117l0.15382,0.25123l1.33566,0.31164l1.18057,0.66108l0.61965,-0.15772l0.69992,0.16331l1.18057,0.66108l0.75221,-0.19146l0.48646,0.28891l1.07148,0.33333l1.71735,0.12329l1.67099,0.38988h1.97455l0.06983,0.03476l0.08034,0.01874l0.01827,0.02983l0.29856,0.06966l0.26703,0.12461l1.28579,0.26667l0.14287,0.06667l2.40336,0.49845l2.38847,0.55728h0.29856l0.30042,0.06231l0.00688,-0.00428l1.17995,0.27531h0.29856l0.30043,0.06231l0.10014,-0.06231h2.53054l0.10014,0.06231l0.30042,-0.06231h0.29856l1.42864,-0.33333h2.10999c-12.50088,10.20372 -35.9185,21.64727 -76.75701,15.9961z" fill="#fff63b"/><path d="M247.17074,143.50412c6.68191,1.39747 8.07784,1.86555 12.50181,6.20535c2.80165,2.71868 6.13743,9.31575 7.18176,12.61604c1.63849,5.39112 2.92623,11.17953 3.43911,17.02665l-0.12338,-0.18096l-0.14882,-0.02778l-2.70848,-3.97222l-0.62387,-0.11645l-0.07128,-0.11088l-0.71432,-0.66667l-0.33738,-0.18892l-0.09593,-0.15668l-0.20598,-0.04806l-0.23316,-0.25386l-0.21547,-0.01117l-0.18806,-0.15045l-1.38227,-1.50505l-0.53374,-0.02767l-0.66421,-0.53134l-2.14297,-1l-0.75285,-0.15614l-0.65065,-0.38642l-1.07149,-0.33333l-0.4189,-0.03007l-0.3707,-0.18452l-1.42865,-0.33333h-0.79628l-0.19993,-0.11874l-2.14298,-0.66667l-1.71734,-0.12329l-1.671,-0.38988h-1.42864l-0.18811,-0.04389l-0.35234,-0.10961l-0.16963,-0.01218l-0.71856,-0.16765h-1.07149l-1.42865,-0.33333h-8.94426l-0.10014,-0.06231l-0.30042,0.06231h-0.29856l-1.56027,0.36404c-0.60011,0.04374 -1.18633,0.13362 -1.75459,0.26585c1.34262,-12.00907 1.77998,-23.04719 7.67059,-24.29926c-3.32633,-4.81463 -5.50609,-14.77029 -5.12089,-18.15302c0.5299,-3.80271 6.15803,-7.48798 10.73638,-8.5752c3.91894,-0.98076 2.23155,26.54948 3.51703,26.88676z" fill="#fff63b"/></g><path d="M227.24691,187.4227l0.35257,-11.9874" fill="none" stroke="#000000" stroke-width="0.5" stroke-linecap="round"/><path d="M250.51658,186.36499v-12.33997" fill="none" stroke="#000000" stroke-width="0.5" stroke-linecap="round"/><path d="M243.11259,181.13414c1,0 1,1 1,1v0.70514c0,2.51053 -0.55275,4.94287 -3.02864,6.18688c-2.98259,1.4986 -7.26225,-0.83948 -7.43305,-4.07145c0,0 0,-1 1,-1c1,0 1,1 1,1c-0.20249,1.79563 3.02686,3.03222 4.55435,2.27482c1.76958,-0.87743 1.90735,-2.6701 1.90735,-4.39025v-0.70514c0,0 0,-1 1,-1z" fill="#000000" stroke="none" stroke-width="0.5" stroke-linecap="butt"/></g></g></svg>