<svg version="1.1" xmlns="http://www.w3.org/2000/svg" xmlns:xlink="http://www.w3.org/1999/xlink" width="118.4352" height="130.59182" viewBox="0,0,118.4352,130.59182"><g transform="translate(-163.96213,-107.87315)"><g data-paper-data="{&quot;isPaintingLayer&quot;:true}" fill-rule="nonzero" stroke-linecap="butt" stroke-linejoin="miter" stroke-miterlimit="10" stroke-dasharray="" stroke-dashoffset="0" style="mix-blend-mode: normal"><path d="M277.39732,190.62457c0,18.56929 -16.33843,33.62267 -36.4929,33.62267c-20.15447,0 -36.4929,-15.05338 -36.4929,-33.62267c0,-18.56929 16.33843,-33.62267 36.4929,-33.62267c20.15447,0 36.4929,15.05338 36.4929,33.62267z" fill="none" stroke="#000000" stroke-width="10"/><g data-paper-data="{&quot;index&quot;:null}" stroke="none" stroke-width="1"><path d="M260.65275,214.09297c-16.03685,16.90272 -41.06373,29.21804 -77.8564,22.50931c-14.69633,-2.65739 -27.54101,-11.53307 -11.23065,-21.59461c12.68693,-7.74476 28.80939,-11.93854 38.18957,-21.43191l0,1.44806l1.25,5l0.34284,0.19591l0.0219,0.39426l1.14607,0.98235l0.15959,0.18619l0.02767,0.49813l0.99167,0.85l0.00833,0.15l0.96658,0.8285l0.8285,0.96658l0.15,0.00833l0.85,0.99167l0.49813,0.02767l0.18619,0.15959l0.98235,1.14607l0.39426,0.0219l0.19591,0.34284l0.61648,0.15412l0.12669,0.1478l0.49813,0.02767l0.6199,0.53134l2.08307,1.04154l0.05573,0.09752l0.27864,0.06966l0.24922,0.12461l0.99524,0.22117l0.14356,0.25123l1.24655,0.31164l1.1018,0.66108l0.57831,-0.15772l0.65322,0.16331l1.1018,0.66108l0.70203,-0.19146l0.454,0.28891l1,0.33333l1.60277,0.12329l1.55951,0.38988h1.84281l0.06517,0.03476l0.07498,0.01874l0.01705,0.02983l0.27864,0.06966l0.24922,0.12461l1.2,0.26667l0.13333,0.06667l2.24301,0.49845l2.22912,0.55728l0.27864,0l0.28038,0.06231l0.00642,-0.00428l1.10123,0.27531l0.27864,0l0.28038,0.06231l0.09346,-0.06231l2.36171,0l0.09346,0.06231l0.28038,-0.06231l0.27864,0l1.33333,-0.33333h3.01419l0.09346,0.06231l0.28038,-0.06231h0.27864l2.22912,-0.55728l1.14355,-0.25412l0.45627,-0.0351l0.59667,-0.19889l0.04653,-0.01034l0.03102,-0.01551l0.32579,-0.1086l0.07092,-0.04513l2.7668,-0.6917l0.19591,-0.34284l0.39426,-0.0219l0.49032,-0.57205l1.02395,-0.25599c-0.70966,0.87292 -1.44573,1.71142 -2.20696,2.51193z" fill="#272525"/><path d="M245.92393,108.35857c3.90872,1.40431 1.903,24.84623 1.34108,28.85877c27.19364,7.39627 32.20724,35.70422 24.49026,58.04466v-3.25238l0.06231,-0.09346l-0.06231,-0.28038v-0.27864l-0.55728,-2.22912l-0.07463,-0.33582l0,-0.52708l-0.33333,-1.33333l-0.2656,-0.49799l-0.01916,-0.07665l-0.03124,-0.01785l-0.20225,-0.37923l-0.2389,-1.07506l-0.27761,-0.55521l0,-0.30599l-0.38988,-1.55951l-0.12329,-1.60277l-0.33333,-1l-0.31964,-0.5023l-0.08386,-0.33543l-0.20365,-0.11637l-0.45201,-0.7103l-0.04242,-0.7635l-0.97558,-0.83621l-0.68984,-1.08403l-0.13889,-0.02778l-2.52778,-3.97222l-0.58225,-0.11645l-0.06653,-0.11088l-0.66667,-0.66667l-0.31487,-0.18892l-0.08953,-0.15668l-0.19223,-0.04806l-0.2176,-0.25386l-0.2011,-0.01117l-0.17552,-0.15045l-1.29004,-1.50505l-0.49813,-0.02767l-0.6199,-0.53134l-2,-1l-0.70262,-0.15614l-0.60724,-0.38642l-1,-0.33333l-0.39095,-0.03007l-0.34597,-0.18452l-1.33333,-0.33333h-0.74315l-0.18659,-0.11874l-2,-0.66667l-1.60277,-0.12329l-1.55951,-0.38988l-1.33333,0l-0.17556,-0.04389l-0.32883,-0.10961l-0.15832,-0.01218l-0.67062,-0.16765h-1l-1.33333,-0.33333h-8.34752l-0.09346,-0.06231l-0.28038,0.06231h-0.27864l-1.45617,0.36404c-1.00399,0.07841 -1.96635,0.3051 -2.86519,0.65818l-0.15078,0.03351l-0.24922,0.12461l-0.27864,0.06966l-0.05412,0.0947c-0.87054,0.42572 -1.6701,0.97418 -2.37614,1.62284c-1.11887,0.36445 -2.18727,0.8159 -3.08579,1.33107c0.46637,-4.98053 0.27473,-10.12809 0.02735,-15.68334c-0.41274,-7.31283 5.99467,-12.78412 10.81577,-13.76805c-15.31533,-17.02136 3.01735,-33.38031 13.50826,-29.84579z" fill="#272525"/><path d="M179.75517,230.68658c-3.08229,-0.35803 -12.13536,-3.84446 -5.35498,-10.02482c8.96414,-8.12545 24.63742,-11.09756 36.96592,-20.11802l0.0039,0.07023l1.14607,0.98235l0.15959,0.18619l0.02767,0.49813l0.99167,0.85l0.00833,0.15l0.96658,0.8285l0.8285,0.96658l0.15,0.00833l0.85,0.99167l0.49813,0.02767l0.18619,0.15959l0.98235,1.14607l0.39426,0.0219l0.19591,0.34284l0.61648,0.15412l0.12669,0.1478l0.49813,0.02767l0.6199,0.53134l2.08307,1.04154l0.05573,0.09752l0.27864,0.06966l0.24922,0.12461l0.99524,0.22117l0.14356,0.25123l1.24655,0.31164l1.1018,0.66108l0.57831,-0.15772l0.65322,0.16331l1.1018,0.66108l0.70203,-0.19146l0.454,0.28891l1,0.33333l1.60277,0.12329l1.55951,0.38988h1.84281l0.06517,0.03476l0.07498,0.01874l0.01705,0.02983l0.27864,0.06966l0.24922,0.12461l1.2,0.26667l0.13333,0.06667l2.24301,0.49845l2.22912,0.55728l0.27864,0l0.28038,0.06231l0.00642,-0.00428l1.10123,0.27531l0.27864,0l0.28038,0.06231l0.09346,-0.06231l2.36171,0l0.09346,0.06231l0.28038,-0.06231l0.27864,0l1.33333,-0.33333l1.96922,0c-11.66685,10.20372 -33.5221,21.64727 -71.63598,15.9961z" fill="#fff63b"/><path d="M244.67695,139.84632c6.23611,1.39747 7.53891,1.86555 11.66772,6.20535c2.61473,2.71868 5.72795,9.31575 6.70261,12.61604c1.52917,5.39112 2.731,11.17953 3.20966,17.02665l-0.11515,-0.18096l-0.13889,-0.02778l-2.52778,-3.97222l-0.58225,-0.11645l-0.06653,-0.11088l-0.66667,-0.66667l-0.31487,-0.18892l-0.08953,-0.15668l-0.19223,-0.04806l-0.2176,-0.25386l-0.2011,-0.01117l-0.17552,-0.15045l-1.29004,-1.50505l-0.49813,-0.02767l-0.6199,-0.53134l-2,-1l-0.70262,-0.15614l-0.60724,-0.38642l-1,-0.33333l-0.39095,-0.03007l-0.34597,-0.18452l-1.33333,-0.33333h-0.74315l-0.18659,-0.11874l-2,-0.66667l-1.60277,-0.12329l-1.55951,-0.38988l-1.33333,0l-0.17556,-0.04389l-0.32883,-0.10961l-0.15832,-0.01218l-0.67062,-0.16765h-1l-1.33333,-0.33333h-8.34752l-0.09346,-0.06231l-0.28038,0.06231h-0.27864l-1.45617,0.36404c-0.56007,0.04374 -1.10718,0.13362 -1.63753,0.26585c1.25305,-12.00907 1.66122,-23.04719 7.15883,-24.29926c-3.10441,-4.81463 -5.13874,-14.77029 -4.77924,-18.15302c0.49454,-3.80271 5.74718,-7.48798 10.02007,-8.5752c3.65748,-0.98076 2.08267,26.54948 3.28239,26.88676z" fill="#fff63b"/></g></g></g></svg>