<svg version="1.1" xmlns="http://www.w3.org/2000/svg" xmlns:xlink="http://www.w3.org/1999/xlink" width="151.57683" height="157.48772" viewBox="0,0,151.57683,157.48772"><g transform="translate(-134.94821,-95.31269)"><g data-paper-data="{&quot;isPaintingLayer&quot;:true}" fill-rule="nonzero" stroke-linejoin="miter" stroke-miterlimit="10" stroke-dasharray="" stroke-dashoffset="0" style="mix-blend-mode: normal"><path d="M281.52504,195.10709c0,22.39371 -21.11193,40.54739 -47.1548,40.54739c-26.04287,0 -47.1548,-18.15368 -47.1548,-40.54739c0,-22.39371 21.11192,-40.54739 47.1548,-40.54739c26.04287,0 47.1548,18.15368 47.1548,40.54739z" fill="none" stroke="#000000" stroke-width="10" stroke-linecap="butt"/><g data-paper-data="{&quot;index&quot;:null}" stroke="none" stroke-width="1" stroke-linecap="butt"><path d="M259.88832,223.4089c-20.72224,20.3839 -53.06106,35.23561 -100.60321,27.14519c-18.99006,-3.20469 -35.58749,-13.90835 -14.51184,-26.0421c16.39359,-9.33982 37.22644,-14.39733 49.34717,-25.84589v1.74629l1.61521,6.02977l0.44301,0.23626l0.0283,0.47546l1.48091,1.18467l0.20621,0.22454l0.03576,0.60072l1.2814,1.02506l0.01076,0.18089l1.24898,0.99913l1.07056,1.16565l0.19383,0.01005l1.09834,1.19591l0.64367,0.03337l0.24059,0.19246l1.26936,1.38211l0.50945,0.02641l0.25315,0.41345l0.79659,0.18586l0.1637,0.17824l0.64367,0.03337l0.80101,0.64077l2.69166,1.25605l0.07201,0.1176l0.36005,0.08401l0.32203,0.15027l1.28601,0.26672l0.18551,0.30297l1.61074,0.37582l1.42371,0.79723l0.74727,-0.1902l0.84407,0.19694l1.42371,0.79723l0.90714,-0.23089l0.58664,0.34841l1.29216,0.40198l2.07104,0.14868l2.01514,0.47018h2.38122l0.08421,0.04192l0.09689,0.0226l0.02203,0.03597l0.36005,0.08401l0.32203,0.15027l1.5506,0.32159l0.17229,0.0804l2.89834,0.60111l2.88038,0.67205h0.36005l0.3623,0.07514l0.0083,-0.00516l1.42297,0.33201h0.36005l0.3623,0.07514l0.12076,-0.07514h3.05171l0.12076,0.07514l0.3623,-0.07514h0.36005l1.72288,-0.40198h3.89483l0.12076,0.07514l0.3623,-0.07514h0.36005l2.88038,-0.67205l1.47766,-0.30646l0.58958,-0.04233l0.77099,-0.23985l0.06013,-0.01247l0.04008,-0.0187l0.42097,-0.13097l0.09164,-0.05442l3.57516,-0.83416l0.25315,-0.41345l0.50945,-0.02641l0.63357,-0.68987l1.32311,-0.30871c-0.917,1.0527 -1.86812,2.06389 -2.85176,3.02927z" fill="#272525"/><path d="M240.85627,95.89809c5.0507,1.69353 2.45899,29.96341 1.7329,34.80234c35.13864,8.91956 41.61703,43.05764 31.64542,69.99918v-3.92222l0.08052,-0.11271l-0.08052,-0.33813v-0.33603l-0.72009,-2.68822l-0.09643,-0.40498v-0.63563l-0.43072,-1.60793l-0.3432,-0.60055l-0.02476,-0.09244l-0.04037,-0.02153l-0.26134,-0.45733l-0.30869,-1.29647l-0.35872,-0.66956v-0.36901l-0.50379,-1.8807l-0.15931,-1.93287l-0.43072,-1.20595l-0.41303,-0.60575l-0.10836,-0.40451l-0.26315,-0.14034l-0.58407,-0.85659l-0.05482,-0.92075l-1.26061,-1.00843l-0.89139,-1.30729l-0.17947,-0.0335l-3.2663,-4.79031l-0.75236,-0.14043l-0.08597,-0.13372l-0.86145,-0.80397l-0.40686,-0.22783l-0.11569,-0.18895l-0.24839,-0.05796l-0.28117,-0.30614l-0.25985,-0.01347l-0.2268,-0.18144l-1.66694,-1.81502l-0.64367,-0.03337l-0.80101,-0.64077l-2.58433,-1.20595l-0.9079,-0.1883l-0.78465,-0.466l-1.29216,-0.40198l-0.50517,-0.03626l-0.44705,-0.22252l-1.72289,-0.40198h-0.96027l-0.2411,-0.14319l-2.58433,-0.80397l-2.07104,-0.14868l-2.01514,-0.47018h-1.72289l-0.22685,-0.05293l-0.4249,-0.13218l-0.20458,-0.01469l-0.86655,-0.20218h-1.29216l-1.72288,-0.40198h-10.78636l-0.12076,-0.07514l-0.3623,0.07514h-0.36005l-1.88161,0.43902c-1.29732,0.09456 -2.54085,0.36794 -3.7023,0.79373l-0.19483,0.04041l-0.32204,0.15027l-0.36004,0.08401l-0.06993,0.1142c-1.12488,0.5134 -2.15804,1.17482 -3.07036,1.95707c-1.44576,0.43951 -2.82631,0.98394 -3.98734,1.60521c0.60263,-6.00629 0.355,-12.21401 0.03534,-18.91338c-0.53333,-8.81894 7.74609,-15.41706 13.97574,-16.60363c-19.78991,-20.52697 3.89891,-40.25511 17.45488,-35.99265z" fill="#272525"/><path d="M155.3554,243.42003c-3.98283,-0.43177 -15.68087,-4.63624 -6.91951,-12.08947c11.58314,-9.79892 31.83558,-13.38315 47.76602,-24.2614l0.00504,0.08469l1.48091,1.18467l0.20621,0.22454l0.03576,0.60072l1.2814,1.02506l0.01076,0.18089l1.24898,0.99913l1.07056,1.16565l0.19383,0.01005l1.09834,1.19591l0.64367,0.03337l0.24059,0.19246l1.26936,1.38211l0.50945,0.02641l0.25315,0.41345l0.79659,0.18586l0.1637,0.17824l0.64367,0.03337l0.80101,0.64077l2.69166,1.25605l0.07201,0.1176l0.36005,0.08401l0.32203,0.15027l1.28601,0.26672l0.18551,0.30297l1.61074,0.37582l1.42371,0.79723l0.74727,-0.1902l0.84407,0.19694l1.42371,0.79723l0.90714,-0.23089l0.58664,0.34841l1.29216,0.40198l2.07104,0.14868l2.01514,0.47018h2.38122l0.08421,0.04192l0.09689,0.0226l0.02203,0.03597l0.36005,0.08401l0.32203,0.15027l1.5506,0.32159l0.17229,0.0804l2.89834,0.60111l2.88038,0.67205h0.36005l0.3623,0.07514l0.0083,-0.00516l1.42297,0.33201h0.36005l0.3623,0.07514l0.12076,-0.07514h3.05171l0.12076,0.07514l0.3623,-0.07514h0.36005l1.72288,-0.40198h2.54456c-15.07548,12.30522 -43.31605,26.10561 -92.56542,19.29056z" fill="#fff63b"/><path d="M239.24497,133.87087c8.05808,1.68528 9.7415,2.24977 15.0766,7.48337c3.37866,3.2786 7.40145,11.23436 8.66087,15.21436c1.97594,6.50144 3.5289,13.482 4.14741,20.53335l-0.1488,-0.21823l-0.17946,-0.0335l-3.26631,-4.79031l-0.75236,-0.14043l-0.08597,-0.13372l-0.86144,-0.80397l-0.40686,-0.22783l-0.11569,-0.18895l-0.2484,-0.05796l-0.28117,-0.30614l-0.25985,-0.01347l-0.2268,-0.18144l-1.66695,-1.81502l-0.64367,-0.03337l-0.80101,-0.64077l-2.58432,-1.20595l-0.9079,-0.1883l-0.78465,-0.466l-1.29216,-0.40198l-0.50517,-0.03626l-0.44705,-0.22252l-1.72288,-0.40198h-0.96027l-0.24111,-0.14319l-2.58433,-0.80397l-2.07104,-0.14868l-2.01514,-0.47018h-1.72288l-0.22685,-0.05293l-0.42491,-0.13218l-0.20457,-0.01469l-0.86655,-0.20218h-1.29217l-1.72288,-0.40198h-10.78636l-0.12076,-0.07514l-0.36229,0.07514h-0.36005l-1.88161,0.43902c-0.7237,0.05275 -1.43065,0.16114 -2.11595,0.3206c1.61914,-14.48238 2.14657,-27.79385 9.25038,-29.30379c-4.01141,-5.80622 -6.64009,-17.81229 -6.17556,-21.8917c0.63903,-4.58589 7.4263,-9.03016 12.94757,-10.3413c4.72606,-1.18275 2.69115,32.01745 4.24138,32.42419z" fill="#fff63b"/></g><path d="M215.21775,186.83464l0.42518,-14.45625" fill="none" stroke="#000000" stroke-width="0.5" stroke-linecap="round"/><path d="M243.27989,185.55909v-14.88144" fill="none" stroke="#000000" stroke-width="0.5" stroke-linecap="round"/><path d="M234.35103,179.25093c1.20595,0 1.20595,1.20595 1.20595,1.20595v0.85037c0,3.02758 -0.66659,5.96087 -3.6524,7.46109c-3.59687,1.80724 -8.75794,-1.01237 -8.96392,-4.90998c0,0 0,-1.20595 1.20595,-1.20595c1.20595,0 1.20595,1.20595 1.20595,1.20595c-0.24419,2.16544 3.65025,3.65671 5.49234,2.74333c2.13403,-1.05815 2.30017,-3.22002 2.30017,-5.29443v-0.85037c0,0 0,-1.20595 1.20595,-1.20595z" fill="#000000" stroke="none" stroke-width="0.5" stroke-linecap="butt"/></g></g></svg>