<svg version="1.1" xmlns="http://www.w3.org/2000/svg" xmlns:xlink="http://www.w3.org/1999/xlink" width="115.10635" height="93.85323" viewBox="0,0,115.10635,93.85323"><g transform="translate(-187.50411,-120.75115)"><g data-paper-data="{&quot;isPaintingLayer&quot;:true}" fill-rule="nonzero" stroke-linejoin="miter" stroke-miterlimit="10" stroke-dasharray="" stroke-dashoffset="0" style="mix-blend-mode: normal"><path d="M281.01956,175.98172c0,18.56929 -16.33843,33.62267 -36.4929,33.62267c-20.15447,0 -36.4929,-15.05338 -36.4929,-33.62267c0,-18.56929 16.33843,-33.62267 36.4929,-33.62267c20.15447,0 36.4929,15.05338 36.4929,33.62267z" fill="none" stroke="#000000" stroke-width="10" stroke-linecap="butt"/><path d="M194.14164,157.61514c-0.00839,-0.03316 -0.01622,-0.06655 -0.0235,-0.10017c-0.33457,-1.54641 0.4082,-3.13965 0.70104,-4.6945c0.74661,-3.96422 2.36181,-8.17636 5.93543,-9.80118c0.46004,-0.58979 1.01069,-1.10919 1.66146,-1.53746c0.58479,-0.38484 1.25637,-0.53243 1.96522,-0.56402c0.02629,-0.04585 0.0531,-0.09042 0.08045,-0.13366c1.66812,-2.63777 4.72716,-3.16717 7.86556,-2.76106c0.00704,-0.01386 0.01411,-0.02767 0.02121,-0.04144c0.48037,-0.93142 1.28699,-1.73747 2.29373,-2.40484c0.06122,-0.15698 0.12546,-0.29134 0.19225,-0.39939c0.26981,-0.43644 0.64872,-0.76618 1.0811,-1.04364c-1.44282,-1.20604 -2.66492,-2.41695 -2.66087,-3.05124c0.01177,-1.84419 2.10714,-3.02732 3.16071,-4.54098c2.44995,-0.53279 4.4916,-1.25028 7.03884,-0.76809c1.89565,0.35885 3.8127,0.81867 5.53827,1.6816c0.88956,0.44486 1.62451,0.96631 2.22739,1.54989c0.05809,-0.25327 0.12905,-0.49844 0.21324,-0.73382c1.71156,-4.78516 5.18158,-3.24811 8.06555,-1.68127c0.12004,-0.02924 0.23997,-0.06066 0.35983,-0.09327c0.60569,-2.1388 1.57111,-4.07207 3.94584,-5.2391c1.47571,-0.72522 3.26497,-0.44483 4.9087,-0.48739c4.82969,-0.12504 8.5398,1.40024 11.46509,4.52654c4.1693,-0.4145 9.05788,0.99521 11.44197,3.16488c1.3506,1.22913 2.45833,2.93813 3.43026,4.69103c4.305,-3.6345 11.65316,-3.52955 16.0661,0.81386c3.07959,3.03107 5.27175,8.14928 7.44848,11.89514c3.02384,7.31747 6.1854,13.69931 2.10469,21.46924c-0.77124,1.4685 -1.86875,2.7606 -3.15954,3.80351c0.22107,0.88522 0.25758,1.71261 -0.29773,2.35457c-0.61663,0.71285 -9.36181,2.6299 -11.32037,1.62564c-1.8639,-0.95572 -3.06476,-2.14158 -3.96298,-3.49844c-2.61452,-0.73804 -4.98386,-3.05718 -5.89844,-5.13809c-0.33749,-0.76788 -0.60312,-2.18144 -0.77702,-3.72714c-0.74509,0.98693 -1.67859,1.61675 -2.84679,1.40362c-2.10804,-0.3846 -2.79006,-3.29698 -3.79127,-5.19154c-1.16645,-2.20723 -1.16073,-5.32343 -1.33537,-7.72106c0.14789,-1.47565 -0.21087,-3.10013 0.38842,-4.44319c-2.17619,-1.74607 -3.99307,-4.19323 -4.67914,-6.60977c-0.44164,-0.13158 -0.87932,-0.27556 -1.30809,-0.42953c-0.23557,0.29759 -0.43846,0.53392 -0.58985,0.68363c-1.25774,1.24377 -2.42076,3.75846 -4.1357,3.32503c-0.73608,-0.18604 -1.31116,-0.64097 -1.79036,-1.23798c-3.56301,2.1468 -8.91763,5.5182 -12.69188,1.997c-0.88358,-0.82434 -1.25351,-2.02804 -1.66631,-3.20009c-0.17022,-0.01611 -0.33902,-0.03448 -0.50587,-0.0548c-0.45925,0.259 -0.89035,0.47394 -1.2624,0.63467c-0.96767,0.41805 -1.90232,0.71619 -2.80983,0.90957c-0.13296,1.74222 -1.2701,3.10664 -4.14852,3.30542c-0.40772,2.41709 -1.00508,6.96186 -1.94588,8.92954c-0.65707,1.37426 -1.25766,3.2131 -2.70706,3.68168c-2.01845,0.65256 -4.21228,-0.50656 -6.31792,-0.76394c-0.07363,-0.009 -0.14862,-0.01796 -0.22492,-0.0269c-0.45134,1.16723 -1.76558,1.87 -2.60756,2.82644c-0.60316,0.68517 -1.39998,1.74443 -2.31968,2.9008c0.81551,2.29111 1.81956,5.43003 1.51652,6.35577c-1.69049,5.16424 -4.60213,4.49618 -9.06442,4.31957c-1.39822,-0.05534 -2.89717,-0.38974 -4.37211,-0.94648c-0.87073,-0.03883 -1.63173,-0.19177 -2.17434,-0.47516c-0.62305,-0.32541 -1.16682,-0.76949 -1.65401,-1.28401c-0.99952,0.79445 -2.16294,1.38126 -3.67669,1.52084c-6.37188,0.58754 -7.96596,-5.85276 -9.02846,-10.27509c1.40773,-1.36279 2.57179,-3.03397 4.2232,-4.08836c0.83096,-0.53055 1.63568,-0.91868 2.4143,-1.18143zM194.58257,162.93425c-0.827,0.43587 -1.63608,0.93604 -2.26413,1.30068c1.59971,2.17721 2.30484,4.17449 4.11601,3.55346c-0.5589,-0.78386 -1.00457,-1.61214 -1.30412,-2.46987c-0.22371,-0.64059 -0.41428,-1.46239 -0.54777,-2.38426zM217.91082,148.42356c0.34826,0.27894 0.40862,-0.54505 0.07027,-1.91539c-0.37659,-0.05221 -0.74622,-0.12414 -1.09886,-0.22267c0.24656,0.71526 0.46475,1.23681 0.64926,1.59129c0.10664,0.15145 0.20205,0.28877 0.28517,0.40913c0.03159,0.04575 0.06297,0.09163 0.09415,0.13764zM239.58518,134.72558c-0.29844,-0.85255 -0.39933,-1.77889 -0.52821,-2.69478c-0.02967,-0.01252 -0.05862,-0.02617 -0.08675,-0.0411c-0.34033,-0.18072 -0.66827,-0.38225 -0.99006,-0.59417c-0.62848,0.10427 -1.26834,0.244 -1.91679,0.40734c0.2216,0.62803 0.46388,1.27153 0.56998,1.67989c0.24125,0.92855 0.90346,2.05499 1.91352,2.36205c0.03151,0.00958 0.06334,0.01874 0.09547,0.0275c0.01908,-0.26188 0.0988,-0.51401 0.25995,-0.75307c0.06297,-0.0934 0.30841,-0.23477 0.68289,-0.39367zM294.4706,159.6069c0.87377,1.91874 1.30122,3.89236 1.69034,5.93154c1.3321,-2.42668 1.88117,-5.68555 1.70823,-7.62061c-0.20968,-2.34609 -1.72799,-5.38402 -2.91175,-7.89464c0.30246,1.25497 0.54841,2.50534 0.7727,3.70126c-0.18967,1.30881 -0.13543,2.67705 -0.56902,3.92644c-0.2237,0.64459 -0.44396,1.30585 -0.69049,1.95602zM282.88181,137.36386c0.13861,0.00247 0.27683,0.00725 0.41423,0.01417c0.83414,-0.5192 1.74024,-0.88007 2.67485,-0.95067c-1.46904,-0.6955 -3.28951,-0.98612 -4.94954,-0.76201c0.13254,0.08168 0.26621,0.16927 0.40099,0.26292c0.52032,0.36157 1.00604,0.85597 1.45947,1.43559zM285.89711,150.31595c0.48989,0.47283 1.05325,0.86319 1.72321,1.12693c0.35157,0.1384 -0.8308,-0.31069 -0.90618,-0.68093c-0.12317,-0.60499 0.13304,-1.24784 0.23647,-1.86858c-0.74582,-0.16745 -1.49688,-0.43849 -2.22651,-0.70081c0.05316,0.07044 0.10514,0.14113 0.15593,0.21205c0.41276,0.5763 0.74672,1.21981 1.01707,1.91135zM255.1187,127.19384c-2.56533,-1.44151 -6.92019,-2.27485 -9.13268,-1.43738c-0.35198,0.13323 -0.65624,0.49906 -0.91608,0.97862c3.41453,1.6488 7.41007,5.66415 6.247,9.10935c-0.62332,1.8464 -1.84401,2.8447 -3.27536,3.22053c-0.50837,0.83065 -1.27412,1.39407 -2.17926,1.7593c0.01071,0.01893 0.02155,0.03779 0.03253,0.05658c0.53614,0.91759 2.1178,-0.39404 3.06619,-0.87357c1.05371,-0.53279 2.46956,-1.19764 3.86955,-1.93298c-1.69906,-3.48577 -1.03297,-6.3028 1.19885,-9.66195c0.30597,-0.46052 0.67265,-0.8655 1.08926,-1.2185zM265.3922,133.56787c0.25721,-0.16028 0.53482,-0.31219 0.83368,-0.45495c0.37656,-0.45672 0.83073,-0.77537 1.32927,-0.97509c-0.91971,-0.61088 -2.02835,-1.06162 -3.45991,-1.36714c0.71153,1.13848 1.32637,2.24229 1.3118,2.66368c-0.0014,0.04057 -0.00642,0.08517 -0.01485,0.1335zM221.21379,141.62211c0.23086,0.0017 0.46172,0.00384 0.69246,0.00384c1.31141,0 2.62477,-0.05064 3.93416,0.02212c0.12926,0.00718 0.27435,0.08858 0.41465,0.1683c-0.04222,-0.25876 -0.0725,-0.52272 -0.09187,-0.78998c-1.39771,-0.72349 -2.78476,-1.58506 -4.19446,-2.49892c-0.97435,0.06996 -2.00632,0.20475 -2.85412,0.35546c-0.06987,0.3748 -0.09835,0.7768 -0.12779,1.14572c0.72002,0.32913 1.3657,0.66261 1.9063,0.97295c0.10166,0.20885 0.20966,0.41526 0.32068,0.62049zM274.12459,151.68746c-0.32167,-0.81396 -0.63988,-1.61741 -0.93721,-2.41885c-0.3199,-0.02206 -0.64498,-0.06995 -0.97304,-0.14161c-0.07928,0.68688 0.06959,1.4056 0.06583,2.10302c0.09192,1.32028 0.43977,2.60968 0.71202,3.90825c0.0023,-0.00714 0.00458,-0.01428 0.00685,-0.02143c0.36417,-1.14654 0.76157,-2.28287 1.12556,-3.42938zM291.67619,168.68594c-0.25647,-1.38074 -0.44407,-2.77794 -0.81695,-4.13088c-1.36982,0.95786 -2.54087,1.04341 -3.66003,0.5159c0.02422,1.01711 0.01696,2.15277 -0.08759,3.179c0.19133,0.1785 0.40863,0.32883 0.65814,0.44374c0.65612,0.30217 1.44447,-0.02791 2.1665,-0.04975c0.57466,-0.01738 1.162,0.04201 1.73993,0.042zM288.81241,159.65822c-0.43286,-0.70953 -0.92278,-1.38606 -1.53383,-1.92838c0.24663,1.01277 0.53077,2.003 1.29352,2.63788c0.16443,0.13686 0.11218,-0.41444 0.19715,-0.61077c0.01426,-0.03296 0.02865,-0.06586 0.04316,-0.09873zM219.84889,130.79634c0.811,0.51999 1.53719,1.17027 2.29295,1.7774c1.99838,-0.06135 4.06627,-0.03637 5.98555,0.3883c-0.00522,-0.00821 -0.01046,-0.01641 -0.01573,-0.0246c-0.85942,-1.33543 -4.754,-2.10058 -5.38345,-2.21697c-0.67249,-0.12434 -1.88112,-0.0263 -2.87932,0.07586zM226.9509,146.55953c-1.3751,0.15706 -2.82861,0.12125 -3.94447,0.08971c0.17406,2.46544 -0.54357,4.987 -2.14261,6.19605c0.34255,0.05385 0.68504,0.11451 1.02707,0.18523c1.20116,0.24838 2.27359,1.10999 3.49987,1.13628c0.35563,0.00762 0.05774,-0.71153 0.13694,-1.05831c0.27798,-1.21712 0.68243,-2.40426 0.93322,-3.62727c0.19839,-0.96743 0.34191,-1.94494 0.48998,-2.92169zM200.06554,156.40616c-0.17383,0.20541 -0.30406,0.43194 -0.40053,0.67427c0.14449,-0.19627 0.29257,-0.38471 0.44362,-0.56433c-0.01446,-0.03651 -0.02883,-0.07315 -0.0431,-0.10994zM210.07137,162.51809c-0.01105,-0.01973 -0.02209,-0.03946 -0.03312,-0.0592c-0.16263,-0.00895 -0.32518,-0.01994 -0.4874,-0.03274c0.09597,0.11753 0.1913,0.23636 0.28579,0.3563c0.07846,-0.08793 0.15668,-0.17607 0.23473,-0.26437zM245.99473,133.72186c-0.07724,-0.08824 -0.15521,-0.17378 -0.2339,-0.25667c-0.00257,0.07488 -0.00594,0.14978 -0.01008,0.22467c0.08223,0.00921 0.1636,0.01986 0.24397,0.032zM271.10366,143.29459c0.16733,-0.07588 0.33733,-0.14449 0.50973,-0.20606c-0.02904,-0.30522 -0.04963,-0.61298 -0.06095,-0.92369c-0.74756,-0.31833 -1.5741,-0.73731 -2.37801,-1.22049c-0.10958,0.01459 -0.22104,0.02694 -0.33424,0.03712c0.62038,0.77577 1.46351,1.6585 2.26346,2.31312z" fill="#000000" stroke="none" stroke-width="0.5" stroke-linecap="butt"/><path d="M257.18125,186.03459c2.14373,1.28624 0.85749,3.42997 0.85749,3.42997l-1.04124,1.71993c-1.12888,1.57058 -2.49054,3.76838 -4.21936,4.7604c-7.3083,4.19362 -13.5073,-0.86721 -19.74424,-3.97743c0,0 -2.23607,-1.11803 -1.11803,-3.3541c1.11803,-2.23607 3.3541,-1.11803 3.3541,-1.11803c4.52172,2.26636 9.58094,7.19463 15.04468,4.09857c0.64489,-0.36543 2.38047,-2.986 2.61418,-3.3156l0.82245,-1.38622c0,0 1.28624,-2.14373 3.42997,-0.85749z" fill="#000000" stroke="none" stroke-width="0.5" stroke-linecap="butt"/><path d="M256.06655,179.173c-0.31046,0.1494 -0.62423,0.29701 -0.9481,0.31834c-2.70437,0.17808 -5.63698,-0.14303 -8.40364,0.00101c-4.04857,0.21077 -8.20159,0.31513 -12.25225,0.31444c-0.88007,-0.00015 -1.76451,0.08284 -2.6402,-0.00483c-0.1576,-0.01578 -0.32147,-0.14698 -0.47637,-0.25648l-0.32459,1.62296c-0.09623,0.53577 -0.36316,1.01229 -0.74249,1.37126c-0.19627,0.58999 -0.39253,1.17998 -0.5888,1.76997c0,0 -0.79057,2.37171 -3.16228,1.58114c-2.37171,-0.79057 -1.58114,-3.16228 -1.58114,-3.16228c0.29857,-0.89378 0.59714,-1.78757 0.89571,-2.68135l0.59104,-2.36414c0.13246,-0.58369 0.46915,-1.08981 0.93098,-1.43926c-0.02558,-0.15562 0.00529,-0.30849 0.11563,-0.4575c1.39546,-1.88454 7.90906,-0.867 9.95041,-0.97566c5.93681,-0.31602 12.0786,-1.02479 17.99867,-0.30961c1.74177,0.21042 3.79809,-0.39763 5.22655,0.62097c1.0602,0.75601 0.76684,2.46764 1.07542,3.75429l0.00605,-0.00151l0.60763,2.43053c0.05753,0.21047 0.08824,0.43201 0.08824,0.66073c0,1.38071 -1.11929,2.5 -2.5,2.5c-1.09231,0 -2.02101,-0.70054 -2.36132,-1.67684l-0.91135,-2.43028l-0.51648,-1.00224c0,0 -0.03351,-0.06702 -0.07733,-0.18366z" fill="#000000" stroke="none" stroke-width="0.5" stroke-linecap="butt"/><path d="M231.99837,159.63001v10.17578" fill="none" stroke="#000000" stroke-width="7" stroke-linecap="round"/><path d="M254.89387,155.8141l0.42399,11.44774" fill="none" stroke="#000000" stroke-width="7" stroke-linecap="round"/></g></g></svg>