<svg version="1.1" xmlns="http://www.w3.org/2000/svg" xmlns:xlink="http://www.w3.org/1999/xlink" width="82.7353" height="83.5731" viewBox="0,0,82.7353,83.5731"><g transform="translate(-198.24899,-127.96019)"><g data-paper-data="{&quot;isPaintingLayer&quot;:true}" fill-rule="nonzero" stroke-linejoin="miter" stroke-miterlimit="10" stroke-dasharray="" stroke-dashoffset="0" style="mix-blend-mode: normal"><path d="M268.52153,180.00001c0,14.26597 -12.76952,25.83082 -28.52153,25.83082c-15.752,0 -28.52153,-11.56485 -28.52153,-25.83082c0,-14.26597 12.76953,-25.83082 28.52153,-25.83082c15.752,0 28.52153,11.56485 28.52153,25.83082z" fill="none" stroke="#000000" stroke-width="7" stroke-linecap="butt"/><path d="M276.48929,192.90195c0,2.60566 -0.066,7.64164 -4.91388,9.55023c-6.7292,2.64926 -20.05728,1.71659 -31.86339,1.71659c-13.06748,0 -28.37204,1.50794 -34.89544,-1.63828c-3.6163,-1.74413 -2.68791,-6.92986 -2.68791,-9.1491c0,-2.65968 -1.62669,-8.22048 3.4043,-10.14776c6.73932,-2.5817 22.5493,-1.5985 34.17906,-1.5985c11.87646,0 24.45327,-1.15203 31.1772,1.52433c4.77556,1.90084 5.60008,7.15839 5.60008,9.7425z" fill="#dfb060" stroke="#000000" stroke-width="3.5" stroke-linecap="butt"/><path d="M240.29163,185.72587c0,0 -5.18131,0.13546 -4.99723,-0.3505c0.2116,-0.55863 -5.55044,-4.96544 -5.55044,-4.96544c0,0 1.7041,-0.9752 3.00577,-1.0545c1.81584,-0.11062 8.57188,-0.03226 11.90391,0.26475c2.40039,0.21397 1.8707,0.66318 1.8707,0.66318c0,0 -0.05421,1.03895 0.20806,1.52362c0.35084,0.64835 -0.44778,0.24836 -0.44778,0.24836z" fill="#000000" stroke="#000000" stroke-width="3.5" stroke-linecap="butt"/><path d="M238.61359,184.27204v17.97897" fill="none" stroke="#000000" stroke-width="3.5" stroke-linecap="round"/><path d="M205.73088,187.14868c0,-0.55229 0.44771,-1 1,-1c0.55229,0 1,0.44771 1,1c0,0.55229 -0.44771,1 -1,1c-0.55229,0 -1,-0.44771 -1,-1z" fill="#000000" stroke="none" stroke-width="0.5" stroke-linecap="butt"/><path d="M209.5664,185.95008c0,-0.55229 0.44771,-1 1,-1c0.55229,0 1,0.44771 1,1c0,0.55229 -0.44771,1 -1,1c-0.55229,0 -1,-0.44771 -1,-1z" fill="#000000" stroke="none" stroke-width="0.5" stroke-linecap="butt"/><path d="M208.12808,189.06643c0,-0.55229 0.44771,-1 1,-1c0.55229,0 1,0.44771 1,1c0,0.55229 -0.44771,1 -1,1c-0.55229,0 -1,-0.44771 -1,-1z" fill="#000000" stroke="none" stroke-width="0.5" stroke-linecap="butt"/><path d="M265.18134,186.42952c0,-0.55229 0.44772,-1 1,-1c0.55228,0 1,0.44771 1,1c0,0.55229 -0.44772,1 -1,1c-0.55228,0 -1,-0.44771 -1,-1z" fill="#000000" stroke="none" stroke-width="0.5" stroke-linecap="butt"/><path d="M270.69489,187.14868c0,-0.55229 0.44772,-1 1,-1c0.55228,0 1,0.44771 1,1c0,0.55229 -0.44772,1 -1,1c-0.55228,0 -1,-0.44771 -1,-1z" fill="#000000" stroke="none" stroke-width="0.5" stroke-linecap="butt"/><path d="M266.85938,189.06643c0,-0.55229 0.44772,-1 1,-1c0.55228,0 1,0.44771 1,1c0,0.55229 -0.44772,1 -1,1c-0.55228,0 -1,-0.44771 -1,-1z" fill="#000000" stroke="none" stroke-width="0.5" stroke-linecap="butt"/><path d="M208.94025,163.88889c-0.86709,2.4635 -0.92881,5.0011 -2.74415,4.20022c-1.81534,-0.80087 -6.96667,-5.38065 -6.09958,-7.84416c0.86709,-2.4635 7.10431,-2.27665 8.91965,-1.47577c1.81534,0.80087 0.79117,2.6562 -0.07592,5.11971z" fill="#ba5d00" stroke="#000000" stroke-width="3.5" stroke-linecap="butt"/><path d="M209.12808,163.89587l4.07523,1.91776" fill="none" stroke="#000000" stroke-width="3.5" stroke-linecap="round"/><path d="M270.31465,158.73508c1.81534,-0.80087 8.05256,-0.98773 8.91965,1.47577c0.86708,2.4635 -4.28424,7.04328 -6.09958,7.84416c-1.81534,0.80087 -1.87706,-1.73672 -2.74415,-4.20022c-0.86708,-2.4635 -1.89126,-4.31883 -0.07592,-5.11971z" data-paper-data="{&quot;index&quot;:null}" fill="#ba5d00" stroke="#000000" stroke-width="3.5" stroke-linecap="butt"/><path d="M270.20273,163.86176l-4.07523,1.91776" data-paper-data="{&quot;index&quot;:null}" fill="none" stroke="#000000" stroke-width="3.5" stroke-linecap="round"/><path d="M219.56531,158.86176c0,0 -3.20552,-0.58835 -3.15247,-1.36659c0.05705,-0.83675 0.12907,-1.89301 0.18229,-2.67352c0.13036,-1.91189 0.4437,-6.50755 0.4437,-6.50755c0,0 0.63326,-1.67804 2.15748,-1.67804c4.81274,0 30.45824,0.54007 39.76888,0.7396c2.10965,0.04521 -1.37962,0.28931 -1.37962,0.28931c0,0 4.76027,0.683 4.76027,1.90968c0,1.96266 0,4.76319 0,6.05853c0,1.32205 -3.67839,2.79583 -3.67839,2.79583c0,0 2.40929,0.43275 0.30162,0.43275c-9.37509,0 -35.34184,0 -40.01248,0c-1.41028,0 0.60872,0 0.60872,0z" fill="#000000" stroke="#000000" stroke-width="3.5" stroke-linecap="butt"/><path d="M223.54633,131.40754c0,0 1.17741,-1.71576 2.97206,-1.69744c1.9296,0.0197 4.3654,0.04457 6.1653,0.06294c4.40894,0.04501 15.00681,0.15321 15.00681,0.15321c0,0 3.89834,0.316 3.98256,1.12826c0.26596,2.56473 0.43979,16.23825 0.49493,21.20249c0.0125,1.12482 -0.74232,-0.73151 -0.74232,-0.73151c0,0 -1.3094,2.54551 -4.13359,2.5612c-4.51861,0.0251 -10.96625,0.06092 -13.9485,0.07749c-3.04375,0.01691 -6.64008,-1.92447 -6.64008,-1.92447c0,0 -0.86318,1.28946 -0.97965,0.16627c-0.51809,-4.99604 -1.95306,-18.83384 -2.21117,-21.32284c-0.07793,-0.75154 0.03364,0.32439 0.03364,0.32439z" fill="#000000" stroke="#000000" stroke-width="3.5" stroke-linecap="butt"/><path d="M214.03765,209.78329v-5.44692h49.93589v5.44692z" fill="#905d00" stroke="#000000" stroke-width="3.5" stroke-linecap="butt"/></g></g></svg>