<svg version="1.1" xmlns="http://www.w3.org/2000/svg" xmlns:xlink="http://www.w3.org/1999/xlink" width="82.7353" height="86.09009" viewBox="0,0,82.7353,86.09009"><g transform="translate(-198.63236,-138.21345)"><g data-paper-data="{&quot;isPaintingLayer&quot;:true}" fill-rule="nonzero" stroke-linejoin="miter" stroke-miterlimit="10" stroke-dasharray="" stroke-dashoffset="0" style="mix-blend-mode: normal"><path d="M240.67499,195.97913c0,0 -5.18131,0.13546 -4.99723,-0.3505c0.2116,-0.55863 -5.55044,-4.96544 -5.55044,-4.96544c0,0 1.7041,-0.9752 3.00577,-1.0545c1.81584,-0.11062 8.57188,-0.03226 11.90391,0.26475c2.40039,0.21397 1.8707,0.66318 1.8707,0.66318c0,0 -0.05421,1.03895 0.20806,1.52362c0.35084,0.64835 -0.44778,0.24836 -0.44778,0.24836z" fill="#000000" stroke="#000000" stroke-width="3.5" stroke-linecap="butt"/><path d="M209.94976,196.20334c0,-0.55229 0.44771,-1 1,-1c0.55229,0 1,0.44771 1,1c0,0.55229 -0.44771,1 -1,1c-0.55229,0 -1,-0.44771 -1,-1z" fill="#000000" stroke="none" stroke-width="0.5" stroke-linecap="butt"/><path d="M265.5647,196.68278c0,-0.55229 0.44772,-1 1,-1c0.55228,0 1,0.44771 1,1c0,0.55229 -0.44772,1 -1,1c-0.55228,0 -1,-0.44771 -1,-1z" fill="#000000" stroke="none" stroke-width="0.5" stroke-linecap="butt"/><path d="M271.07825,197.40194c0,-0.55229 0.44772,-1 1,-1c0.55228,0 1,0.44771 1,1c0,0.55229 -0.44772,1 -1,1c-0.55228,0 -1,-0.44771 -1,-1z" fill="#000000" stroke="none" stroke-width="0.5" stroke-linecap="butt"/><path d="M209.32361,174.14215c-0.86709,2.4635 -0.92881,5.0011 -2.74415,4.20022c-1.81534,-0.80087 -6.96667,-5.38065 -6.09958,-7.84416c0.86709,-2.4635 7.10431,-2.27665 8.91965,-1.47577c1.81534,0.80087 0.79117,2.6562 -0.07592,5.11971z" fill="#ba5d00" stroke="#000000" stroke-width="3.5" stroke-linecap="butt"/><path d="M213.58667,176.06689l-4.07523,-1.91776" fill="none" stroke="#000000" stroke-width="3.5" stroke-linecap="round"/><path d="M270.69801,168.98834c1.81534,-0.80087 8.05256,-0.98773 8.91965,1.47577c0.86708,2.4635 -4.28424,7.04328 -6.09958,7.84416c-1.81534,0.80087 -1.87706,-1.73672 -2.74415,-4.20022c-0.86708,-2.4635 -1.89126,-4.31883 -0.07592,-5.11971z" data-paper-data="{&quot;index&quot;:null}" fill="#ba5d00" stroke="#000000" stroke-width="3.5" stroke-linecap="butt"/><path d="M266.51086,176.03278l4.07523,-1.91776" data-paper-data="{&quot;index&quot;:null}" fill="none" stroke="#000000" stroke-width="3.5" stroke-linecap="round"/><path d="M219.94867,169.11502c0,0 -3.20552,-0.58835 -3.15247,-1.36659c0.05705,-0.83675 0.12907,-1.89301 0.18229,-2.67352c0.13036,-1.91189 0.4437,-6.50755 0.4437,-6.50755c0,0 0.63326,-1.67804 2.15748,-1.67804c4.81274,0 30.45824,0.54007 39.76888,0.7396c2.10965,0.04521 -1.37962,0.28931 -1.37962,0.28931c0,0 4.76027,0.683 4.76027,1.90968c0,1.96266 0,4.76319 0,6.05853c0,1.32205 -3.67839,2.79583 -3.67839,2.79583c0,0 2.40929,0.43275 0.30162,0.43275c-9.37509,0 -35.34184,0 -40.01248,0c-1.41028,0 0.60872,0 0.60872,0z" fill="#000000" stroke="#000000" stroke-width="3.5" stroke-linecap="butt"/><path d="M223.92969,141.6608c0,0 1.17741,-1.71576 2.97206,-1.69744c1.9296,0.0197 4.3654,0.04457 6.1653,0.06294c4.40894,0.04501 15.00681,0.15321 15.00681,0.15321c0,0 3.89834,0.316 3.98256,1.12826c0.26596,2.56473 0.43979,16.23825 0.49493,21.20249c0.0125,1.12482 -0.74232,-0.73151 -0.74232,-0.73151c0,0 -1.3094,2.54551 -4.13359,2.5612c-4.51861,0.0251 -10.96625,0.06092 -13.9485,0.07749c-3.04375,0.01691 -6.64008,-1.92447 -6.64008,-1.92447c0,0 -0.86318,1.28946 -0.97965,0.16627c-0.51809,-4.99604 -1.95306,-18.83384 -2.21117,-21.32284c-0.07793,-0.75154 0.03364,0.32439 0.03364,0.32439z" fill="#000000" stroke="#000000" stroke-width="3.5" stroke-linecap="butt"/><path d="M268.90916,191.4613c-0.0313,14.89603 -12.82616,26.94239 -28.57813,26.9063c-15.75196,-0.03609 -28.49609,-12.14095 -28.46479,-27.03698c0.0313,-14.89603 12.82617,-26.94239 28.57813,-26.9063c15.75196,0.03609 28.49609,12.14095 28.46479,27.03698z" fill="none" stroke="#000000" stroke-width="7" stroke-linecap="butt"/><path d="M276.84859,204.9513c-0.00572,2.72074 -0.08277,7.97898 -4.93482,9.96076c-6.735,2.75085 -20.061,1.74645 -31.86708,1.71941c-13.06745,-0.02994 -28.37528,1.50954 -34.89176,-1.79058c-3.61246,-1.82944 -2.6727,-7.24208 -2.66783,-9.55933c0.00584,-2.77715 -1.60865,-8.58727 3.42656,-10.58814c6.74497,-2.68028 22.55275,-1.61744 34.18248,-1.5908c11.87643,0.02721 24.45574,-1.14689 31.17378,1.66308c4.77138,1.99573 5.58436,7.48737 5.57869,10.18561z" fill="#dfb060" stroke="#000000" stroke-width="3.5" stroke-linecap="butt"/><path d="M238.99192,195.85348l-0.03945,18.77301" fill="none" stroke="#000000" stroke-width="3.5" stroke-linecap="round"/><path d="M206.10297,198.78184c0.00121,-0.57668 0.4499,-1.04314 1.00219,-1.04187c0.55229,0.00127 0.99902,0.46977 0.9978,1.04646c-0.00121,0.57668 -0.4499,1.04314 -1.00219,1.04187c-0.55229,-0.00127 -0.99902,-0.46977 -0.9978,-1.04646z" fill="#000000" stroke="none" stroke-width="0.5" stroke-linecap="butt"/><path d="M208.49596,200.78978c0.00121,-0.57668 0.4499,-1.04314 1.00219,-1.04187c0.55229,0.00127 0.99902,0.46977 0.9978,1.04646c-0.00121,0.57668 -0.4499,1.04314 -1.00219,1.04187c-0.55229,-0.00127 -0.99902,-0.46977 -0.9978,-1.04646z" fill="#000000" stroke="none" stroke-width="0.5" stroke-linecap="butt"/><path d="M267.22712,200.92433c0.00121,-0.57668 0.44991,-1.04314 1.00219,-1.04187c0.55228,0.00127 0.99902,0.46977 0.9978,1.04646c-0.00121,0.57668 -0.44991,1.04314 -1.00219,1.04187c-0.55228,-0.00127 -0.99902,-0.46977 -0.9978,-1.04646z" fill="#000000" stroke="none" stroke-width="0.5" stroke-linecap="butt"/><path d="M214.36006,222.43514l0.01195,-5.68748l49.93577,0.1144l-0.01195,5.68748z" fill="#905d00" stroke="#000000" stroke-width="3.5" stroke-linecap="butt"/><path d="M233.35039,183.19249c0,1.43911 -0.07876,5.19852 -0.47728,6.34278c-0.75542,2.16897 -2.26848,1.20223 -3.82337,1.20223c-1.68177,0 -3.59077,1.17355 -4.29775,-1.29449c-0.2915,-1.01761 -0.00291,-5.034 -0.00291,-6.25052c0,-4.16699 1.92547,-7.54501 4.30065,-7.54501c2.37519,0 4.30065,3.37801 4.30065,7.54501z" fill="none" stroke="#000000" stroke-width="2.5" stroke-linecap="butt"/><path d="M253.2895,184.26908c0,1.43911 -0.07876,5.19853 -0.47728,6.34278c-0.75541,2.16897 -2.26848,1.20223 -3.82337,1.20223c-1.68177,0 -3.59077,1.17355 -4.29774,-1.29449c-0.2915,-1.01762 -0.0029,-5.034 -0.0029,-6.25052c0,-4.16699 1.92547,-7.54501 4.30065,-7.54501c2.37518,0 4.30066,3.37801 4.30066,7.54501z" fill="none" stroke="#000000" stroke-width="2.5" stroke-linecap="butt"/><path d="M228.12518,184.09789c0,-0.55228 0.44772,-1 1,-1c0.55228,0 1,0.44772 1,1c0,0.55228 -0.44772,1 -1,1c-0.55228,0 -1,-0.44772 -1,-1z" fill="#000000" stroke="none" stroke-width="0.5" stroke-linecap="butt"/><path d="M232.41801,178.9421c0.38764,0.61525 -0.20133,1.49868 -0.62402,2.09039c-1.13123,1.58359 -3.6163,0.34615 -5.09269,0.58464c0,0 -0.98995,0.14142 -1.13137,-0.84853c-0.09497,-0.66479 0.32027,-0.94693 0.6033,-1.06054l-0.18987,-0.646c0.00306,-0.00085 0.00613,-0.00171 0.00919,-0.00257c-0.17442,-0.18 -0.28177,-0.42537 -0.28177,-0.69581c0,-0.42396 0.26383,-0.78629 0.63626,-0.93179c0.7258,-1.24351 3.35837,-1.5647 3.90999,-0.5181c0.517,0.03861 0.92446,0.47032 0.92446,0.99719c0,0.01565 -0.00036,0.03122 -0.00107,0.04669c0.39673,0.03898 0.80562,0.29881 1.23759,0.98443z" fill="#000000" stroke="none" stroke-width="0.5" stroke-linecap="butt"/><path d="M247.66127,184.9683c0,-0.55228 0.44772,-1 1,-1c0.55228,0 1,0.44772 1,1c0,0.55228 -0.44772,1 -1,1c-0.55228,0 -1,-0.44772 -1,-1z" fill="#000000" stroke="none" stroke-width="0.5" stroke-linecap="butt"/><path d="M249.5103,177.62846c0.02183,-0.01425 0.04391,-0.02818 0.06627,-0.04178l0.1428,0.00777l-0.0125,-0.05002l1.2072,-0.3018l0.10565,0.42261l1.00708,0.05483c-0.17222,0.28391 -0.31122,0.59823 -0.45171,0.91118l0.17444,0.17444c0.90371,0.30864 1.52216,1.08448 1.22538,2.68235c-0.22099,1.1898 -5.22588,0.92981 -6.07038,1.03681c0,0 -0.8829,0.11036 -1.08717,-0.70994c-0.17592,-0.09717 -0.33853,-0.27055 -0.43825,-0.56971c-0.31623,-0.94868 0.63246,-1.26491 0.63246,-1.26491l0.20632,-0.02415c-0.25307,-1.26441 0.90261,-4.32141 2.98041,-2.68898c0.12369,0.09717 0.22754,0.21984 0.31201,0.36129z" fill="#000000" stroke="none" stroke-width="0.5" stroke-linecap="butt"/><path d="M232.96243,170.72704c0.02069,0.08275 0.03255,0.16021 0.03695,0.23268c0.00359,0.00159 0.00718,0.00319 0.01075,0.00482l1.03598,0.44399l-0.16229,0.37868c1.49658,0.72825 2.10728,2.06519 3.20192,3.96773l0.13176,0.94884c0,0 0,1 -1,1c-0.48162,0 -0.73128,-0.23196 -0.8607,-0.47245c-0.05328,-0.03597 -0.1029,-0.07695 -0.1482,-0.12225l-0.7545,-0.7545l0.01392,-0.01392l-0.04524,-0.01885c-0.20251,-0.25303 -0.48518,-0.4866 -0.79326,-0.71556c-0.46899,0.05837 -0.83533,-0.30797 -0.83533,-0.30797c-0.46468,-0.46561 -0.94766,-0.9138 -1.44832,-1.34051l-0.93351,-0.40008c-0.36768,-0.14778 -0.62726,-0.50769 -0.62726,-0.92822c0,-0.09118 0.0122,-0.1795 0.03506,-0.26344c-0.16109,-0.4539 0.13289,-0.89486 0.13289,-0.89486c0.2012,-0.3018 0.4024,-0.6036 0.6036,-0.9054l1.19312,-0.56634c0,0 0.97014,-0.24254 1.21268,0.72761z" fill="#000000" stroke="none" stroke-width="0.5" stroke-linecap="butt"/><path d="M246.87926,170.92513l1.19312,0.56635c0.2012,0.3018 0.4024,0.6036 0.6036,0.9054c0,0 0.29397,0.44097 0.13288,0.89487c0.02286,0.08393 0.03507,0.17226 0.03507,0.26344c0,0.42054 -0.25959,0.78044 -0.62726,0.92822l-0.93351,0.40007c-0.50066,0.42671 -0.98364,0.87489 -1.44832,1.34051c0,0 -0.36634,0.36633 -0.83533,0.30796c-0.30808,0.22896 -0.59074,0.46254 -0.79326,0.71556l-0.04523,0.01885l0.01392,0.01392l-0.7545,0.7545c-0.0453,0.0453 -0.09492,0.08628 -0.1482,0.12225c-0.12942,0.24049 -0.37908,0.47244 -0.8607,0.47244c-1,0 -1,-1 -1,-1l0.13175,-0.94884c1.09464,-1.90255 1.70534,-3.23949 3.20192,-3.96773l-0.1623,-0.37868l1.03599,-0.444c0.00357,-0.00163 0.00715,-0.00324 0.01074,-0.00482c0.00439,-0.07246 0.01626,-0.14992 0.03695,-0.23268c0.24254,-0.97015 1.21268,-0.72761 1.21268,-0.72761z" data-paper-data="{&quot;index&quot;:null}" fill="#000000" stroke="none" stroke-width="0.5" stroke-linecap="butt"/><path d="M250.24777,184.9886c0,0.86426 -0.70062,1.56487 -1.56487,1.56487c-0.86426,0 -1.56487,-0.70062 -1.56487,-1.56487c0,-0.86426 0.70062,-1.56487 1.56487,-1.56487c0.86426,0 1.56487,0.70062 1.56487,1.56487z" fill="none" stroke="#000000" stroke-width="0.5" stroke-linecap="butt"/><path d="M230.67346,184.19277c0,0.86425 -0.70061,1.56488 -1.56487,1.56488c-0.86425,0 -1.56488,-0.70062 -1.56488,-1.56488c0,-0.86425 0.70062,-1.56488 1.56488,-1.56488c0.86425,0 1.56487,0.70062 1.56487,1.56488z" fill="none" stroke="#000000" stroke-width="0.5" stroke-linecap="butt"/></g></g></svg>